<svg xmlns="http://www.w3.org/2000/svg" version="1.1" xmlns:xlink="http://www.w3.org/1999/xlink" xmlns:svgjs="http://svgjs.com/svgjs" width="1440" height="560" preserveAspectRatio="none" viewBox="0 0 1440 560">
    <g mask="url(&quot;#SvgjsMask1000&quot;)" fill="none">
        <rect width="1440" height="560" x="0" y="0" fill="#0e2a47"></rect>
        <path d="M-49.31 339.51L-49.31 339.51" stroke="#132e65" stroke-width="1.5"></path>
        <path d="M-49.31 339.51L105.58 407.3" stroke="#132e65" stroke-width="1.5"></path>
        <path d="M-49.31 339.51L45.76 521.73" stroke="#132e65" stroke-width="1.5"></path>
        <path d="M-96.05 553.07L-96.05 553.07" stroke="#132e65" stroke-width="1.5"></path>
        <path d="M-96.05 553.07L45.76 521.73" stroke="#132e65" stroke-width="1.5"></path>
        <path d="M-96.05 553.07L-64.27 701.3" stroke="#132e65" stroke-width="1.5"></path>
        <path d="M-96.05 553.07L-49.31 339.51" stroke="#132e65" stroke-width="1.5"></path>
        <path d="M-96.05 553.07L105.56 683.77" stroke="#132e65" stroke-width="1.5"></path>
        <path d="M-96.05 553.07L105.58 407.3" stroke="#132e65" stroke-width="1.5"></path>
        <path d="M-96.05 553.07L200.24 657.34" stroke="#132e65" stroke-width="1.5"></path>
        <path d="M-64.27 701.3L-64.27 701.3" stroke="#132e65" stroke-width="1.5"></path>
        <path d="M-64.27 701.3L105.56 683.77" stroke="#132e65" stroke-width="1.5"></path>
        <path d="M-64.27 701.3L45.76 521.73" stroke="#132e65" stroke-width="1.5"></path>
        <path d="M-64.27 701.3L200.24 657.34" stroke="#132e65" stroke-width="1.5"></path>
        <path d="M-64.27 701.3L105.58 407.3" stroke="#132e65" stroke-width="1.5"></path>
        <path d="M105.58 407.3L105.58 407.3" stroke="#132e65" stroke-width="1.5"></path>
        <path d="M105.58 407.3L197.54 374.64" stroke="#132e65" stroke-width="1.5"></path>
        <path d="M105.58 407.3L45.76 521.73" stroke="#132e65" stroke-width="1.5"></path>
        <path d="M105.58 407.3L227.55 510.6" stroke="#132e65" stroke-width="1.5"></path>
        <path d="M45.76 521.73L45.76 521.73" stroke="#132e65" stroke-width="1.5"></path>
        <path d="M105.56 683.77L105.56 683.77" stroke="#132e65" stroke-width="1.5"></path>
        <path d="M105.56 683.77L200.24 657.34" stroke="#132e65" stroke-width="1.5"></path>
        <path d="M197.54 374.64L197.54 374.64" stroke="#132e65" stroke-width="1.5"></path>
        <path d="M197.54 374.64L227.55 510.6" stroke="#132e65" stroke-width="1.5"></path>
        <path d="M197.54 374.64L362.01 496.31" stroke="#132e65" stroke-width="1.5"></path>
        <path d="M227.55 510.6L227.55 510.6" stroke="#132e65" stroke-width="1.5"></path>
        <path d="M227.55 510.6L362.01 496.31" stroke="#132e65" stroke-width="1.5"></path>
        <path d="M200.24 657.34L200.24 657.34" stroke="#132e65" stroke-width="1.5"></path>
        <path d="M200.24 657.34L227.55 510.6" stroke="#132e65" stroke-width="1.5"></path>
        <path d="M200.24 657.34L45.76 521.73" stroke="#132e65" stroke-width="1.5"></path>
        <path d="M200.24 657.34L410.25 668.6" stroke="#132e65" stroke-width="1.5"></path>
        <path d="M200.24 657.34L362.01 496.31" stroke="#132e65" stroke-width="1.5"></path>
        <path d="M200.24 657.34L105.58 407.3" stroke="#132e65" stroke-width="1.5"></path>
        <path d="M362.01 496.31L362.01 496.31" stroke="#132e65" stroke-width="1.5"></path>
        <path d="M362.01 496.31L504.91 512.06" stroke="#132e65" stroke-width="1.5"></path>
        <path d="M362.01 496.31L410.25 668.6" stroke="#132e65" stroke-width="1.5"></path>
        <path d="M410.25 668.6L410.25 668.6" stroke="#132e65" stroke-width="1.5"></path>
        <path d="M410.25 668.6L519.2 647.77" stroke="#132e65" stroke-width="1.5"></path>
        <path d="M410.25 668.6L504.91 512.06" stroke="#132e65" stroke-width="1.5"></path>
        <path d="M504.91 512.06L504.91 512.06" stroke="#132e65" stroke-width="1.5"></path>
        <path d="M504.91 512.06L519.2 647.77" stroke="#132e65" stroke-width="1.5"></path>
        <path d="M504.91 512.06L654.01 403.82" stroke="#132e65" stroke-width="1.5"></path>
        <path d="M504.91 512.06L710.6 558.16" stroke="#132e65" stroke-width="1.5"></path>
        <path d="M519.2 647.77L519.2 647.77" stroke="#132e65" stroke-width="1.5"></path>
        <path d="M519.2 647.77L681.22 663" stroke="#132e65" stroke-width="1.5"></path>
        <path d="M519.2 647.77L710.6 558.16" stroke="#132e65" stroke-width="1.5"></path>
        <path d="M682.42 261.03L682.42 261.03" stroke="#132e65" stroke-width="1.5"></path>
        <path d="M682.42 261.03L654.01 403.82" stroke="#132e65" stroke-width="1.5"></path>
        <path d="M682.42 261.03L840.42 230.35" stroke="#132e65" stroke-width="1.5"></path>
        <path d="M654.01 403.82L654.01 403.82" stroke="#132e65" stroke-width="1.5"></path>
        <path d="M654.01 403.82L802.25 373.34" stroke="#132e65" stroke-width="1.5"></path>
        <path d="M654.01 403.82L710.6 558.16" stroke="#132e65" stroke-width="1.5"></path>
        <path d="M654.01 403.82L830.32 507.54" stroke="#132e65" stroke-width="1.5"></path>
        <path d="M654.01 403.82L840.42 230.35" stroke="#132e65" stroke-width="1.5"></path>
        <path d="M710.6 558.16L710.6 558.16" stroke="#132e65" stroke-width="1.5"></path>
        <path d="M710.6 558.16L681.22 663" stroke="#132e65" stroke-width="1.5"></path>
        <path d="M710.6 558.16L830.32 507.54" stroke="#132e65" stroke-width="1.5"></path>
        <path d="M710.6 558.16L840.89 688.39" stroke="#132e65" stroke-width="1.5"></path>
        <path d="M681.22 663L681.22 663" stroke="#132e65" stroke-width="1.5"></path>
        <path d="M681.22 663L840.89 688.39" stroke="#132e65" stroke-width="1.5"></path>
        <path d="M681.22 663L830.32 507.54" stroke="#132e65" stroke-width="1.5"></path>
        <path d="M681.22 663L504.91 512.06" stroke="#132e65" stroke-width="1.5"></path>
        <path d="M681.22 663L654.01 403.82" stroke="#132e65" stroke-width="1.5"></path>
        <path d="M860.6 38.02L860.6 38.02" stroke="#132e65" stroke-width="1.5"></path>
        <path d="M860.6 38.02L982.74 82.49" stroke="#132e65" stroke-width="1.5"></path>
        <path d="M860.6 38.02L982.52 -74.17" stroke="#132e65" stroke-width="1.5"></path>
        <path d="M860.6 38.02L979.43 189.23" stroke="#132e65" stroke-width="1.5"></path>
        <path d="M860.6 38.02L840.42 230.35" stroke="#132e65" stroke-width="1.5"></path>
        <path d="M860.6 38.02L1089.69 65.97" stroke="#132e65" stroke-width="1.5"></path>
        <path d="M860.6 38.02L1124.99 -68.5" stroke="#132e65" stroke-width="1.5"></path>
        <path d="M840.42 230.35L840.42 230.35" stroke="#132e65" stroke-width="1.5"></path>
        <path d="M840.42 230.35L979.43 189.23" stroke="#132e65" stroke-width="1.5"></path>
        <path d="M840.42 230.35L939.46 337.89" stroke="#132e65" stroke-width="1.5"></path>
        <path d="M840.42 230.35L802.25 373.34" stroke="#132e65" stroke-width="1.5"></path>
        <path d="M802.25 373.34L802.25 373.34" stroke="#132e65" stroke-width="1.5"></path>
        <path d="M802.25 373.34L830.32 507.54" stroke="#132e65" stroke-width="1.5"></path>
        <path d="M802.25 373.34L939.46 337.89" stroke="#132e65" stroke-width="1.5"></path>
        <path d="M830.32 507.54L830.32 507.54" stroke="#132e65" stroke-width="1.5"></path>
        <path d="M830.32 507.54L992.05 511.27" stroke="#132e65" stroke-width="1.5"></path>
        <path d="M840.89 688.39L840.89 688.39" stroke="#132e65" stroke-width="1.5"></path>
        <path d="M840.89 688.39L1004.02 664.89" stroke="#132e65" stroke-width="1.5"></path>
        <path d="M840.89 688.39L830.32 507.54" stroke="#132e65" stroke-width="1.5"></path>
        <path d="M840.89 688.39L992.05 511.27" stroke="#132e65" stroke-width="1.5"></path>
        <path d="M982.52 -74.17L982.52 -74.17" stroke="#132e65" stroke-width="1.5"></path>
        <path d="M982.52 -74.17L1124.99 -68.5" stroke="#132e65" stroke-width="1.5"></path>
        <path d="M982.52 -74.17L982.74 82.49" stroke="#132e65" stroke-width="1.5"></path>
        <path d="M982.52 -74.17L1089.69 65.97" stroke="#132e65" stroke-width="1.5"></path>
        <path d="M982.74 82.49L982.74 82.49" stroke="#132e65" stroke-width="1.5"></path>
        <path d="M982.74 82.49L979.43 189.23" stroke="#132e65" stroke-width="1.5"></path>
        <path d="M982.74 82.49L1089.69 65.97" stroke="#132e65" stroke-width="1.5"></path>
        <path d="M979.43 189.23L979.43 189.23" stroke="#132e65" stroke-width="1.5"></path>
        <path d="M939.46 337.89L939.46 337.89" stroke="#132e65" stroke-width="1.5"></path>
        <path d="M939.46 337.89L979.43 189.23" stroke="#132e65" stroke-width="1.5"></path>
        <path d="M939.46 337.89L992.05 511.27" stroke="#132e65" stroke-width="1.5"></path>
        <path d="M939.46 337.89L1134.38 378.88" stroke="#132e65" stroke-width="1.5"></path>
        <path d="M939.46 337.89L830.32 507.54" stroke="#132e65" stroke-width="1.5"></path>
        <path d="M992.05 511.27L992.05 511.27" stroke="#132e65" stroke-width="1.5"></path>
        <path d="M992.05 511.27L1089.71 546.34" stroke="#132e65" stroke-width="1.5"></path>
        <path d="M992.05 511.27L1004.02 664.89" stroke="#132e65" stroke-width="1.5"></path>
        <path d="M1004.02 664.89L1004.02 664.89" stroke="#132e65" stroke-width="1.5"></path>
        <path d="M1004.02 664.89L1144.15 654.97" stroke="#132e65" stroke-width="1.5"></path>
        <path d="M1124.99 -68.5L1124.99 -68.5" stroke="#132e65" stroke-width="1.5"></path>
        <path d="M1124.99 -68.5L1250.43 -74.94" stroke="#132e65" stroke-width="1.5"></path>
        <path d="M1124.99 -68.5L1089.69 65.97" stroke="#132e65" stroke-width="1.5"></path>
        <path d="M1089.69 65.97L1089.69 65.97" stroke="#132e65" stroke-width="1.5"></path>
        <path d="M1089.69 65.97L1240.96 40.37" stroke="#132e65" stroke-width="1.5"></path>
        <path d="M1089.69 65.97L979.43 189.23" stroke="#132e65" stroke-width="1.5"></path>
        <path d="M1134.38 378.88L1134.38 378.88" stroke="#132e65" stroke-width="1.5"></path>
        <path d="M1134.38 378.88L1253.32 366.48" stroke="#132e65" stroke-width="1.5"></path>
        <path d="M1134.38 378.88L1089.71 546.34" stroke="#132e65" stroke-width="1.5"></path>
        <path d="M1134.38 378.88L1246.15 514.02" stroke="#132e65" stroke-width="1.5"></path>
        <path d="M1134.38 378.88L992.05 511.27" stroke="#132e65" stroke-width="1.5"></path>
        <path d="M1089.71 546.34L1089.71 546.34" stroke="#132e65" stroke-width="1.5"></path>
        <path d="M1089.71 546.34L1144.15 654.97" stroke="#132e65" stroke-width="1.5"></path>
        <path d="M1089.71 546.34L1004.02 664.89" stroke="#132e65" stroke-width="1.5"></path>
        <path d="M1089.71 546.34L1246.15 514.02" stroke="#132e65" stroke-width="1.5"></path>
        <path d="M1144.15 654.97L1144.15 654.97" stroke="#132e65" stroke-width="1.5"></path>
        <path d="M1144.15 654.97L1246.15 514.02" stroke="#132e65" stroke-width="1.5"></path>
        <path d="M1144.15 654.97L992.05 511.27" stroke="#132e65" stroke-width="1.5"></path>
        <path d="M1144.15 654.97L1134.38 378.88" stroke="#132e65" stroke-width="1.5"></path>
        <path d="M1144.15 654.97L840.89 688.39" stroke="#132e65" stroke-width="1.5"></path>
        <path d="M1250.43 -74.94L1250.43 -74.94" stroke="#132e65" stroke-width="1.5"></path>
        <path d="M1250.43 -74.94L1240.96 40.37" stroke="#132e65" stroke-width="1.5"></path>
        <path d="M1250.43 -74.94L1395.04 -46.24" stroke="#132e65" stroke-width="1.5"></path>
        <path d="M1250.43 -74.94L1089.69 65.97" stroke="#132e65" stroke-width="1.5"></path>
        <path d="M1250.43 -74.94L1405.11 92.98" stroke="#132e65" stroke-width="1.5"></path>
        <path d="M1250.43 -74.94L982.52 -74.17" stroke="#132e65" stroke-width="1.5"></path>
        <path d="M1240.96 40.37L1240.96 40.37" stroke="#132e65" stroke-width="1.5"></path>
        <path d="M1240.96 40.37L1124.99 -68.5" stroke="#132e65" stroke-width="1.5"></path>
        <path d="M1240.96 40.37L1405.11 92.98" stroke="#132e65" stroke-width="1.5"></path>
        <path d="M1240.96 40.37L1395.04 -46.24" stroke="#132e65" stroke-width="1.5"></path>
        <path d="M1240.96 40.37L1255.3 223.7" stroke="#132e65" stroke-width="1.5"></path>
        <path d="M1255.3 223.7L1255.3 223.7" stroke="#132e65" stroke-width="1.5"></path>
        <path d="M1255.3 223.7L1397.24 217.94" stroke="#132e65" stroke-width="1.5"></path>
        <path d="M1255.3 223.7L1253.32 366.48" stroke="#132e65" stroke-width="1.5"></path>
        <path d="M1255.3 223.7L1134.38 378.88" stroke="#132e65" stroke-width="1.5"></path>
        <path d="M1253.32 366.48L1253.32 366.48" stroke="#132e65" stroke-width="1.5"></path>
        <path d="M1253.32 366.48L1246.15 514.02" stroke="#132e65" stroke-width="1.5"></path>
        <path d="M1253.32 366.48L1421.45 374.81" stroke="#132e65" stroke-width="1.5"></path>
        <path d="M1253.32 366.48L1397.24 217.94" stroke="#132e65" stroke-width="1.5"></path>
        <path d="M1246.15 514.02L1246.15 514.02" stroke="#132e65" stroke-width="1.5"></path>
        <path d="M1246.15 514.02L1457.22 501.71" stroke="#132e65" stroke-width="1.5"></path>
        <path d="M1246.15 514.02L1421.45 374.81" stroke="#132e65" stroke-width="1.5"></path>
        <path d="M1395.04 -46.24L1395.04 -46.24" stroke="#132e65" stroke-width="1.5"></path>
        <path d="M1395.04 -46.24L1405.11 92.98" stroke="#132e65" stroke-width="1.5"></path>
        <path d="M1405.11 92.98L1405.11 92.98" stroke="#132e65" stroke-width="1.5"></path>
        <path d="M1405.11 92.98L1397.24 217.94" stroke="#132e65" stroke-width="1.5"></path>
        <path d="M1397.24 217.94L1397.24 217.94" stroke="#132e65" stroke-width="1.5"></path>
        <path d="M1421.45 374.81L1421.45 374.81" stroke="#132e65" stroke-width="1.5"></path>
        <path d="M1421.45 374.81L1457.22 501.71" stroke="#132e65" stroke-width="1.5"></path>
        <path d="M1421.45 374.81L1397.24 217.94" stroke="#132e65" stroke-width="1.5"></path>
        <path d="M1421.45 374.81L1609.13 362.08" stroke="#132e65" stroke-width="1.5"></path>
        <path d="M1421.45 374.81L1577.86 240.98" stroke="#132e65" stroke-width="1.5"></path>
        <path d="M1421.45 374.81L1574.25 531.52" stroke="#132e65" stroke-width="1.5"></path>
        <path d="M1457.22 501.71L1457.22 501.71" stroke="#132e65" stroke-width="1.5"></path>
        <path d="M1457.22 501.71L1574.25 531.52" stroke="#132e65" stroke-width="1.5"></path>
        <path d="M1457.22 501.71L1545.62 678.27" stroke="#132e65" stroke-width="1.5"></path>
        <path d="M1457.22 501.71L1609.13 362.08" stroke="#132e65" stroke-width="1.5"></path>
        <path d="M1457.22 501.71L1253.32 366.48" stroke="#132e65" stroke-width="1.5"></path>
        <path d="M1611.8 62.93L1611.8 62.93" stroke="#132e65" stroke-width="1.5"></path>
        <path d="M1611.8 62.93L1577.86 240.98" stroke="#132e65" stroke-width="1.5"></path>
        <path d="M1611.8 62.93L1405.11 92.98" stroke="#132e65" stroke-width="1.5"></path>
        <path d="M1611.8 62.93L1395.04 -46.24" stroke="#132e65" stroke-width="1.5"></path>
        <path d="M1611.8 62.93L1397.24 217.94" stroke="#132e65" stroke-width="1.5"></path>
        <path d="M1611.8 62.93L1609.13 362.08" stroke="#132e65" stroke-width="1.5"></path>
        <path d="M1611.8 62.93L1421.45 374.81" stroke="#132e65" stroke-width="1.5"></path>
        <path d="M1577.86 240.98L1577.86 240.98" stroke="#132e65" stroke-width="1.5"></path>
        <path d="M1577.86 240.98L1609.13 362.08" stroke="#132e65" stroke-width="1.5"></path>
        <path d="M1609.13 362.08L1609.13 362.08" stroke="#132e65" stroke-width="1.5"></path>
        <path d="M1609.13 362.08L1574.25 531.52" stroke="#132e65" stroke-width="1.5"></path>
        <path d="M1609.13 362.08L1397.24 217.94" stroke="#132e65" stroke-width="1.5"></path>
        <path d="M1574.25 531.52L1574.25 531.52" stroke="#132e65" stroke-width="1.5"></path>
        <path d="M1574.25 531.52L1545.62 678.27" stroke="#132e65" stroke-width="1.5"></path>
        <path d="M1545.62 678.27L1545.62 678.27" stroke="#132e65" stroke-width="1.5"></path>
        <circle r="5" cx="-49.31" cy="339.51" fill="#132e65"></circle>
        <circle r="5" cx="-96.05" cy="553.07" fill="#132e65"></circle>
        <circle r="5" cx="-64.27" cy="701.3" fill="#132e65"></circle>
        <circle r="5" cx="105.58" cy="407.3" fill="#132e65"></circle>
        <circle r="5" cx="45.76" cy="521.73" fill="#132e65"></circle>
        <circle r="5" cx="105.56" cy="683.77" fill="#132e65"></circle>
        <circle r="5" cx="197.54" cy="374.64" fill="#132e65"></circle>
        <circle r="5" cx="227.55" cy="510.6" fill="#132e65"></circle>
        <circle r="5" cx="200.24" cy="657.34" fill="#132e65"></circle>
        <circle r="5" cx="362.01" cy="496.31" fill="#132e65"></circle>
        <circle r="5" cx="410.25" cy="668.6" fill="#132e65"></circle>
        <circle r="5" cx="504.91" cy="512.06" fill="#132e65"></circle>
        <circle r="5" cx="519.2" cy="647.77" fill="#132e65"></circle>
        <circle r="5" cx="682.42" cy="261.03" fill="#132e65"></circle>
        <circle r="5" cx="654.01" cy="403.82" fill="#132e65"></circle>
        <circle r="5" cx="710.6" cy="558.16" fill="#132e65"></circle>
        <circle r="5" cx="681.22" cy="663" fill="#132e65"></circle>
        <circle r="5" cx="860.6" cy="38.02" fill="#132e65"></circle>
        <circle r="5" cx="840.42" cy="230.35" fill="#132e65"></circle>
        <circle r="5" cx="802.25" cy="373.34" fill="#132e65"></circle>
        <circle r="5" cx="830.32" cy="507.54" fill="#132e65"></circle>
        <circle r="5" cx="840.89" cy="688.39" fill="#132e65"></circle>
        <circle r="5" cx="982.52" cy="-74.17" fill="#132e65"></circle>
        <circle r="5" cx="982.74" cy="82.49" fill="#132e65"></circle>
        <circle r="5" cx="979.43" cy="189.23" fill="#132e65"></circle>
        <circle r="5" cx="939.46" cy="337.89" fill="#132e65"></circle>
        <circle r="5" cx="992.05" cy="511.27" fill="#132e65"></circle>
        <circle r="5" cx="1004.02" cy="664.89" fill="#132e65"></circle>
        <circle r="5" cx="1124.99" cy="-68.5" fill="#132e65"></circle>
        <circle r="5" cx="1089.69" cy="65.97" fill="#132e65"></circle>
        <circle r="5" cx="1134.38" cy="378.88" fill="#132e65"></circle>
        <circle r="5" cx="1089.71" cy="546.34" fill="#132e65"></circle>
        <circle r="5" cx="1144.15" cy="654.97" fill="#132e65"></circle>
        <circle r="5" cx="1250.43" cy="-74.94" fill="#132e65"></circle>
        <circle r="5" cx="1240.96" cy="40.37" fill="#132e65"></circle>
        <circle r="5" cx="1255.3" cy="223.7" fill="#132e65"></circle>
        <circle r="5" cx="1253.32" cy="366.48" fill="#132e65"></circle>
        <circle r="5" cx="1246.15" cy="514.02" fill="#132e65"></circle>
        <circle r="5" cx="1395.04" cy="-46.24" fill="#132e65"></circle>
        <circle r="5" cx="1405.11" cy="92.98" fill="#132e65"></circle>
        <circle r="5" cx="1397.24" cy="217.94" fill="#132e65"></circle>
        <circle r="5" cx="1421.45" cy="374.81" fill="#132e65"></circle>
        <circle r="5" cx="1457.22" cy="501.71" fill="#132e65"></circle>
        <circle r="5" cx="1611.8" cy="62.93" fill="#132e65"></circle>
        <circle r="5" cx="1577.86" cy="240.98" fill="#132e65"></circle>
        <circle r="5" cx="1609.13" cy="362.08" fill="#132e65"></circle>
        <circle r="5" cx="1574.25" cy="531.52" fill="#132e65"></circle>
        <circle r="5" cx="1545.62" cy="678.27" fill="#132e65"></circle>
        <path d="M1115.89 552.29L1115.89 552.29" stroke="hsl(228.5, 77.2%, 51.5%)" stroke-width="1.5"></path>
        <path d="M1115.89 552.29L1136.69 667.06" stroke="hsl(228.5, 77.2%, 51.5%)" stroke-width="1.5"></path>
        <path d="M1115.89 552.29L980 530.57" stroke="hsl(228.5, 77.2%, 51.5%)" stroke-width="1.5"></path>
        <path d="M1115.89 552.29L1266.9 491.97" stroke="hsl(228.5, 77.2%, 51.5%)" stroke-width="1.5"></path>
        <path d="M1277.39 -37.57L1277.39 -37.57" stroke="hsl(228.5, 77.2%, 51.5%)" stroke-width="1.5"></path>
        <path d="M1277.39 -37.57L1241.82 79.06" stroke="hsl(228.5, 77.2%, 51.5%)" stroke-width="1.5"></path>
        <path d="M1277.39 -37.57L1420.95 42.06" stroke="hsl(228.5, 77.2%, 51.5%)" stroke-width="1.5"></path>
        <path d="M1277.39 -37.57L1138.52 72.18" stroke="hsl(228.5, 77.2%, 51.5%)" stroke-width="1.5"></path>
        <path d="M1277.39 -37.57L1457.03 -38.88" stroke="hsl(228.5, 77.2%, 51.5%)" stroke-width="1.5"></path>
        <path d="M1277.39 -37.57L1153.9 188.28" stroke="hsl(228.5, 77.2%, 51.5%)" stroke-width="1.5"></path>
        <path d="M1277.39 -37.57L1255.06 240.55" stroke="hsl(228.5, 77.2%, 51.5%)" stroke-width="1.5"></path>
        <path d="M1241.82 79.06L1241.82 79.06" stroke="hsl(228.5, 77.2%, 51.5%)" stroke-width="1.5"></path>
        <path d="M1241.82 79.06L1138.52 72.18" stroke="hsl(228.5, 77.2%, 51.5%)" stroke-width="1.5"></path>
        <path d="M1241.82 79.06L1153.9 188.28" stroke="hsl(228.5, 77.2%, 51.5%)" stroke-width="1.5"></path>
        <path d="M1241.82 79.06L1255.06 240.55" stroke="hsl(228.5, 77.2%, 51.5%)" stroke-width="1.5"></path>
        <path d="M1241.82 79.06L1420.95 42.06" stroke="hsl(228.5, 77.2%, 51.5%)" stroke-width="1.5"></path>
        <path d="M1284.21 652.09L1284.21 652.09" stroke="hsl(228.5, 77.2%, 51.5%)" stroke-width="1.5"></path>
        <path d="M1284.21 652.09L1136.69 667.06" stroke="hsl(228.5, 77.2%, 51.5%)" stroke-width="1.5"></path>
        <path d="M1284.21 652.09L1403.04 545.94" stroke="hsl(228.5, 77.2%, 51.5%)" stroke-width="1.5"></path>
        <path d="M1284.21 652.09L1266.9 491.97" stroke="hsl(228.5, 77.2%, 51.5%)" stroke-width="1.5"></path>
        <path d="M1284.21 652.09L1448.75 680.35" stroke="hsl(228.5, 77.2%, 51.5%)" stroke-width="1.5"></path>
        <path d="M1284.21 652.09L1115.89 552.29" stroke="hsl(228.5, 77.2%, 51.5%)" stroke-width="1.5"></path>
        <path d="M1448.75 680.35L1448.75 680.35" stroke="hsl(228.5, 77.2%, 51.5%)" stroke-width="1.5"></path>
        <path d="M1448.75 680.35L1403.04 545.94" stroke="hsl(228.5, 77.2%, 51.5%)" stroke-width="1.5"></path>
        <path d="M1448.75 680.35L1592.98 660.34" stroke="hsl(228.5, 77.2%, 51.5%)" stroke-width="1.5"></path>
        <path d="M1448.75 680.35L1601.37 521.81" stroke="hsl(228.5, 77.2%, 51.5%)" stroke-width="1.5"></path>
        <path d="M1448.75 680.35L1266.9 491.97" stroke="hsl(228.5, 77.2%, 51.5%)" stroke-width="1.5"></path>
        <path d="M1579.13 223.09L1579.13 223.09" stroke="hsl(228.5, 77.2%, 51.5%)" stroke-width="1.5"></path>
        <path d="M1579.13 223.09L1426.52 226.85" stroke="hsl(228.5, 77.2%, 51.5%)" stroke-width="1.5"></path>
        <path d="M1579.13 223.09L1582.79 61.76" stroke="hsl(228.5, 77.2%, 51.5%)" stroke-width="1.5"></path>
        <path d="M1579.13 223.09L1549.68 382.08" stroke="hsl(228.5, 77.2%, 51.5%)" stroke-width="1.5"></path>
        <path d="M1579.13 223.09L1420.95 42.06" stroke="hsl(228.5, 77.2%, 51.5%)" stroke-width="1.5"></path>
        <path d="M1579.13 223.09L1416.87 404.77" stroke="hsl(228.5, 77.2%, 51.5%)" stroke-width="1.5"></path>
        <path d="M1579.13 223.09L1457.03 -38.88" stroke="hsl(228.5, 77.2%, 51.5%)" stroke-width="1.5"></path>
        <path d="M-59.7 639.31L-59.7 639.31" stroke="hsl(228.5, 77.2%, 51.5%)" stroke-width="1.5"></path>
        <path d="M-59.7 639.31L105.68 691.32" stroke="hsl(228.5, 77.2%, 51.5%)" stroke-width="1.5"></path>
        <path d="M-59.7 639.31L90.21 506.08" stroke="hsl(228.5, 77.2%, 51.5%)" stroke-width="1.5"></path>
        <path d="M-59.7 639.31L260.73 658.46" stroke="hsl(228.5, 77.2%, 51.5%)" stroke-width="1.5"></path>
        <path d="M-59.7 639.31L247.11 489.63" stroke="hsl(228.5, 77.2%, 51.5%)" stroke-width="1.5"></path>
        <path d="M-59.7 639.31L359.37 557.01" stroke="hsl(228.5, 77.2%, 51.5%)" stroke-width="1.5"></path>
        <path d="M-59.7 639.31L370.43 650.11" stroke="hsl(228.5, 77.2%, 51.5%)" stroke-width="1.5"></path>
        <path d="M90.21 506.08L90.21 506.08" stroke="hsl(228.5, 77.2%, 51.5%)" stroke-width="1.5"></path>
        <path d="M90.21 506.08L247.11 489.63" stroke="hsl(228.5, 77.2%, 51.5%)" stroke-width="1.5"></path>
        <path d="M90.21 506.08L105.68 691.32" stroke="hsl(228.5, 77.2%, 51.5%)" stroke-width="1.5"></path>
        <path d="M105.68 691.32L105.68 691.32" stroke="hsl(228.5, 77.2%, 51.5%)" stroke-width="1.5"></path>
        <path d="M105.68 691.32L260.73 658.46" stroke="hsl(228.5, 77.2%, 51.5%)" stroke-width="1.5"></path>
        <path d="M247.11 489.63L247.11 489.63" stroke="hsl(228.5, 77.2%, 51.5%)" stroke-width="1.5"></path>
        <path d="M247.11 489.63L359.37 557.01" stroke="hsl(228.5, 77.2%, 51.5%)" stroke-width="1.5"></path>
        <path d="M247.11 489.63L260.73 658.46" stroke="hsl(228.5, 77.2%, 51.5%)" stroke-width="1.5"></path>
        <path d="M247.11 489.63L370.43 650.11" stroke="hsl(228.5, 77.2%, 51.5%)" stroke-width="1.5"></path>
        <path d="M247.11 489.63L105.68 691.32" stroke="hsl(228.5, 77.2%, 51.5%)" stroke-width="1.5"></path>
        <path d="M247.11 489.63L495.83 553.1" stroke="hsl(228.5, 77.2%, 51.5%)" stroke-width="1.5"></path>
        <path d="M260.73 658.46L260.73 658.46" stroke="hsl(228.5, 77.2%, 51.5%)" stroke-width="1.5"></path>
        <path d="M260.73 658.46L370.43 650.11" stroke="hsl(228.5, 77.2%, 51.5%)" stroke-width="1.5"></path>
        <path d="M260.73 658.46L359.37 557.01" stroke="hsl(228.5, 77.2%, 51.5%)" stroke-width="1.5"></path>
        <path d="M260.73 658.46L90.21 506.08" stroke="hsl(228.5, 77.2%, 51.5%)" stroke-width="1.5"></path>
        <path d="M260.73 658.46L495.83 553.1" stroke="hsl(228.5, 77.2%, 51.5%)" stroke-width="1.5"></path>
        <path d="M359.37 557.01L359.37 557.01" stroke="hsl(228.5, 77.2%, 51.5%)" stroke-width="1.5"></path>
        <path d="M359.37 557.01L370.43 650.11" stroke="hsl(228.5, 77.2%, 51.5%)" stroke-width="1.5"></path>
        <path d="M359.37 557.01L495.83 553.1" stroke="hsl(228.5, 77.2%, 51.5%)" stroke-width="1.5"></path>
        <path d="M359.37 557.01L530.54 666.08" stroke="hsl(228.5, 77.2%, 51.5%)" stroke-width="1.5"></path>
        <path d="M359.37 557.01L541.56 395.67" stroke="hsl(228.5, 77.2%, 51.5%)" stroke-width="1.5"></path>
        <path d="M370.43 650.11L370.43 650.11" stroke="hsl(228.5, 77.2%, 51.5%)" stroke-width="1.5"></path>
        <path d="M370.43 650.11L495.83 553.1" stroke="hsl(228.5, 77.2%, 51.5%)" stroke-width="1.5"></path>
        <path d="M541.56 395.67L541.56 395.67" stroke="hsl(228.5, 77.2%, 51.5%)" stroke-width="1.5"></path>
        <path d="M541.56 395.67L495.83 553.1" stroke="hsl(228.5, 77.2%, 51.5%)" stroke-width="1.5"></path>
        <path d="M541.56 395.67L704.8 357.74" stroke="hsl(228.5, 77.2%, 51.5%)" stroke-width="1.5"></path>
        <path d="M541.56 395.67L697.29 538.87" stroke="hsl(228.5, 77.2%, 51.5%)" stroke-width="1.5"></path>
        <path d="M495.83 553.1L495.83 553.1" stroke="hsl(228.5, 77.2%, 51.5%)" stroke-width="1.5"></path>
        <path d="M495.83 553.1L530.54 666.08" stroke="hsl(228.5, 77.2%, 51.5%)" stroke-width="1.5"></path>
        <path d="M530.54 666.08L530.54 666.08" stroke="hsl(228.5, 77.2%, 51.5%)" stroke-width="1.5"></path>
        <path d="M530.54 666.08L639.51 710.46" stroke="hsl(228.5, 77.2%, 51.5%)" stroke-width="1.5"></path>
        <path d="M530.54 666.08L370.43 650.11" stroke="hsl(228.5, 77.2%, 51.5%)" stroke-width="1.5"></path>
        <path d="M704.8 357.74L704.8 357.74" stroke="hsl(228.5, 77.2%, 51.5%)" stroke-width="1.5"></path>
        <path d="M704.8 357.74L859.72 347.21" stroke="hsl(228.5, 77.2%, 51.5%)" stroke-width="1.5"></path>
        <path d="M704.8 357.74L796.12 494.35" stroke="hsl(228.5, 77.2%, 51.5%)" stroke-width="1.5"></path>
        <path d="M704.8 357.74L697.29 538.87" stroke="hsl(228.5, 77.2%, 51.5%)" stroke-width="1.5"></path>
        <path d="M704.8 357.74L495.83 553.1" stroke="hsl(228.5, 77.2%, 51.5%)" stroke-width="1.5"></path>
        <path d="M697.29 538.87L697.29 538.87" stroke="hsl(228.5, 77.2%, 51.5%)" stroke-width="1.5"></path>
        <path d="M697.29 538.87L796.12 494.35" stroke="hsl(228.5, 77.2%, 51.5%)" stroke-width="1.5"></path>
        <path d="M697.29 538.87L639.51 710.46" stroke="hsl(228.5, 77.2%, 51.5%)" stroke-width="1.5"></path>
        <path d="M639.51 710.46L639.51 710.46" stroke="hsl(228.5, 77.2%, 51.5%)" stroke-width="1.5"></path>
        <path d="M859.72 347.21L859.72 347.21" stroke="hsl(228.5, 77.2%, 51.5%)" stroke-width="1.5"></path>
        <path d="M859.72 347.21L796.12 494.35" stroke="hsl(228.5, 77.2%, 51.5%)" stroke-width="1.5"></path>
        <path d="M859.72 347.21L980 530.57" stroke="hsl(228.5, 77.2%, 51.5%)" stroke-width="1.5"></path>
        <path d="M859.72 347.21L1092.22 344.74" stroke="hsl(228.5, 77.2%, 51.5%)" stroke-width="1.5"></path>
        <path d="M859.72 347.21L697.29 538.87" stroke="hsl(228.5, 77.2%, 51.5%)" stroke-width="1.5"></path>
        <path d="M859.72 347.21L541.56 395.67" stroke="hsl(228.5, 77.2%, 51.5%)" stroke-width="1.5"></path>
        <path d="M796.12 494.35L796.12 494.35" stroke="hsl(228.5, 77.2%, 51.5%)" stroke-width="1.5"></path>
        <path d="M796.12 494.35L980 530.57" stroke="hsl(228.5, 77.2%, 51.5%)" stroke-width="1.5"></path>
        <path d="M796.12 494.35L838.43 701.67" stroke="hsl(228.5, 77.2%, 51.5%)" stroke-width="1.5"></path>
        <path d="M796.12 494.35L952.76 664.75" stroke="hsl(228.5, 77.2%, 51.5%)" stroke-width="1.5"></path>
        <path d="M838.43 701.67L838.43 701.67" stroke="hsl(228.5, 77.2%, 51.5%)" stroke-width="1.5"></path>
        <path d="M838.43 701.67L952.76 664.75" stroke="hsl(228.5, 77.2%, 51.5%)" stroke-width="1.5"></path>
        <path d="M838.43 701.67L639.51 710.46" stroke="hsl(228.5, 77.2%, 51.5%)" stroke-width="1.5"></path>
        <path d="M980 530.57L980 530.57" stroke="hsl(228.5, 77.2%, 51.5%)" stroke-width="1.5"></path>
        <path d="M980 530.57L952.76 664.75" stroke="hsl(228.5, 77.2%, 51.5%)" stroke-width="1.5"></path>
        <path d="M980 530.57L1136.69 667.06" stroke="hsl(228.5, 77.2%, 51.5%)" stroke-width="1.5"></path>
        <path d="M980 530.57L1092.22 344.74" stroke="hsl(228.5, 77.2%, 51.5%)" stroke-width="1.5"></path>
        <path d="M952.76 664.75L952.76 664.75" stroke="hsl(228.5, 77.2%, 51.5%)" stroke-width="1.5"></path>
        <path d="M952.76 664.75L1136.69 667.06" stroke="hsl(228.5, 77.2%, 51.5%)" stroke-width="1.5"></path>
        <path d="M952.76 664.75L1115.89 552.29" stroke="hsl(228.5, 77.2%, 51.5%)" stroke-width="1.5"></path>
        <path d="M1138.52 72.18L1138.52 72.18" stroke="hsl(228.5, 77.2%, 51.5%)" stroke-width="1.5"></path>
        <path d="M1138.52 72.18L1153.9 188.28" stroke="hsl(228.5, 77.2%, 51.5%)" stroke-width="1.5"></path>
        <path d="M1153.9 188.28L1153.9 188.28" stroke="hsl(228.5, 77.2%, 51.5%)" stroke-width="1.5"></path>
        <path d="M1153.9 188.28L1255.06 240.55" stroke="hsl(228.5, 77.2%, 51.5%)" stroke-width="1.5"></path>
        <path d="M1092.22 344.74L1092.22 344.74" stroke="hsl(228.5, 77.2%, 51.5%)" stroke-width="1.5"></path>
        <path d="M1092.22 344.74L1153.9 188.28" stroke="hsl(228.5, 77.2%, 51.5%)" stroke-width="1.5"></path>
        <path d="M1092.22 344.74L1276.84 337.7" stroke="hsl(228.5, 77.2%, 51.5%)" stroke-width="1.5"></path>
        <path d="M1092.22 344.74L1255.06 240.55" stroke="hsl(228.5, 77.2%, 51.5%)" stroke-width="1.5"></path>
        <path d="M1092.22 344.74L1115.89 552.29" stroke="hsl(228.5, 77.2%, 51.5%)" stroke-width="1.5"></path>
        <path d="M1136.69 667.06L1136.69 667.06" stroke="hsl(228.5, 77.2%, 51.5%)" stroke-width="1.5"></path>
        <path d="M1255.06 240.55L1255.06 240.55" stroke="hsl(228.5, 77.2%, 51.5%)" stroke-width="1.5"></path>
        <path d="M1255.06 240.55L1276.84 337.7" stroke="hsl(228.5, 77.2%, 51.5%)" stroke-width="1.5"></path>
        <path d="M1276.84 337.7L1276.84 337.7" stroke="hsl(228.5, 77.2%, 51.5%)" stroke-width="1.5"></path>
        <path d="M1276.84 337.7L1266.9 491.97" stroke="hsl(228.5, 77.2%, 51.5%)" stroke-width="1.5"></path>
        <path d="M1276.84 337.7L1416.87 404.77" stroke="hsl(228.5, 77.2%, 51.5%)" stroke-width="1.5"></path>
        <path d="M1266.9 491.97L1266.9 491.97" stroke="hsl(228.5, 77.2%, 51.5%)" stroke-width="1.5"></path>
        <path d="M1266.9 491.97L1403.04 545.94" stroke="hsl(228.5, 77.2%, 51.5%)" stroke-width="1.5"></path>
        <path d="M1266.9 491.97L1416.87 404.77" stroke="hsl(228.5, 77.2%, 51.5%)" stroke-width="1.5"></path>
        <path d="M1266.9 491.97L1136.69 667.06" stroke="hsl(228.5, 77.2%, 51.5%)" stroke-width="1.5"></path>
        <path d="M1457.03 -38.88L1457.03 -38.88" stroke="hsl(228.5, 77.2%, 51.5%)" stroke-width="1.5"></path>
        <path d="M1457.03 -38.88L1420.95 42.06" stroke="hsl(228.5, 77.2%, 51.5%)" stroke-width="1.5"></path>
        <path d="M1457.03 -38.88L1555.81 -103.78" stroke="hsl(228.5, 77.2%, 51.5%)" stroke-width="1.5"></path>
        <path d="M1457.03 -38.88L1582.79 61.76" stroke="hsl(228.5, 77.2%, 51.5%)" stroke-width="1.5"></path>
        <path d="M1420.95 42.06L1420.95 42.06" stroke="hsl(228.5, 77.2%, 51.5%)" stroke-width="1.5"></path>
        <path d="M1420.95 42.06L1582.79 61.76" stroke="hsl(228.5, 77.2%, 51.5%)" stroke-width="1.5"></path>
        <path d="M1420.95 42.06L1426.52 226.85" stroke="hsl(228.5, 77.2%, 51.5%)" stroke-width="1.5"></path>
        <path d="M1420.95 42.06L1555.81 -103.78" stroke="hsl(228.5, 77.2%, 51.5%)" stroke-width="1.5"></path>
        <path d="M1426.52 226.85L1426.52 226.85" stroke="hsl(228.5, 77.2%, 51.5%)" stroke-width="1.5"></path>
        <path d="M1426.52 226.85L1255.06 240.55" stroke="hsl(228.5, 77.2%, 51.5%)" stroke-width="1.5"></path>
        <path d="M1426.52 226.85L1416.87 404.77" stroke="hsl(228.5, 77.2%, 51.5%)" stroke-width="1.5"></path>
        <path d="M1416.87 404.77L1416.87 404.77" stroke="hsl(228.5, 77.2%, 51.5%)" stroke-width="1.5"></path>
        <path d="M1416.87 404.77L1549.68 382.08" stroke="hsl(228.5, 77.2%, 51.5%)" stroke-width="1.5"></path>
        <path d="M1416.87 404.77L1403.04 545.94" stroke="hsl(228.5, 77.2%, 51.5%)" stroke-width="1.5"></path>
        <path d="M1403.04 545.94L1403.04 545.94" stroke="hsl(228.5, 77.2%, 51.5%)" stroke-width="1.5"></path>
        <path d="M1555.81 -103.78L1555.81 -103.78" stroke="hsl(228.5, 77.2%, 51.5%)" stroke-width="1.5"></path>
        <path d="M1555.81 -103.78L1582.79 61.76" stroke="hsl(228.5, 77.2%, 51.5%)" stroke-width="1.5"></path>
        <path d="M1582.79 61.76L1582.79 61.76" stroke="hsl(228.5, 77.2%, 51.5%)" stroke-width="1.5"></path>
        <path d="M1582.79 61.76L1426.52 226.85" stroke="hsl(228.5, 77.2%, 51.5%)" stroke-width="1.5"></path>
        <path d="M1549.68 382.08L1549.68 382.08" stroke="hsl(228.5, 77.2%, 51.5%)" stroke-width="1.5"></path>
        <path d="M1549.68 382.08L1601.37 521.81" stroke="hsl(228.5, 77.2%, 51.5%)" stroke-width="1.5"></path>
        <path d="M1549.68 382.08L1426.52 226.85" stroke="hsl(228.5, 77.2%, 51.5%)" stroke-width="1.5"></path>
        <path d="M1549.68 382.08L1403.04 545.94" stroke="hsl(228.5, 77.2%, 51.5%)" stroke-width="1.5"></path>
        <path d="M1549.68 382.08L1276.84 337.7" stroke="hsl(228.5, 77.2%, 51.5%)" stroke-width="1.5"></path>
        <path d="M1601.37 521.81L1601.37 521.81" stroke="hsl(228.5, 77.2%, 51.5%)" stroke-width="1.5"></path>
        <path d="M1601.37 521.81L1592.98 660.34" stroke="hsl(228.5, 77.2%, 51.5%)" stroke-width="1.5"></path>
        <path d="M1601.37 521.81L1403.04 545.94" stroke="hsl(228.5, 77.2%, 51.5%)" stroke-width="1.5"></path>
        <path d="M1601.37 521.81L1416.87 404.77" stroke="hsl(228.5, 77.2%, 51.5%)" stroke-width="1.5"></path>
        <path d="M1601.37 521.81L1579.13 223.09" stroke="hsl(228.5, 77.2%, 51.5%)" stroke-width="1.5"></path>
        <path d="M1592.98 660.34L1592.98 660.34" stroke="hsl(228.5, 77.2%, 51.5%)" stroke-width="1.5"></path>
        <circle r="25" cx="1115.89" cy="552.29" fill="url(#SvgjsRadialGradient1001)"></circle>
        <circle r="25" cx="1277.39" cy="-37.57" fill="url(#SvgjsRadialGradient1001)"></circle>
        <circle r="25" cx="1241.82" cy="79.06" fill="url(#SvgjsRadialGradient1001)"></circle>
        <circle r="25" cx="1284.21" cy="652.09" fill="url(#SvgjsRadialGradient1001)"></circle>
        <circle r="25" cx="1448.75" cy="680.35" fill="url(#SvgjsRadialGradient1001)"></circle>
        <circle r="25" cx="1579.13" cy="223.09" fill="url(#SvgjsRadialGradient1001)"></circle>
        <circle r="5" cx="-59.7" cy="639.31" fill="#8b9ad9"></circle>
        <circle r="5" cx="90.21" cy="506.08" fill="#8b9ad9"></circle>
        <circle r="5" cx="105.68" cy="691.32" fill="#8b9ad9"></circle>
        <circle r="5" cx="247.11" cy="489.63" fill="#8b9ad9"></circle>
        <circle r="5" cx="260.73" cy="658.46" fill="#8b9ad9"></circle>
        <circle r="5" cx="359.37" cy="557.01" fill="#8b9ad9"></circle>
        <circle r="5" cx="370.43" cy="650.11" fill="#8b9ad9"></circle>
        <circle r="5" cx="541.56" cy="395.67" fill="#8b9ad9"></circle>
        <circle r="5" cx="495.83" cy="553.1" fill="#8b9ad9"></circle>
        <circle r="5" cx="530.54" cy="666.08" fill="#8b9ad9"></circle>
        <circle r="5" cx="704.8" cy="357.74" fill="#8b9ad9"></circle>
        <circle r="5" cx="697.29" cy="538.87" fill="#8b9ad9"></circle>
        <circle r="5" cx="639.51" cy="710.46" fill="#8b9ad9"></circle>
        <circle r="5" cx="859.72" cy="347.21" fill="#8b9ad9"></circle>
        <circle r="5" cx="796.12" cy="494.35" fill="#8b9ad9"></circle>
        <circle r="5" cx="838.43" cy="701.67" fill="#8b9ad9"></circle>
        <circle r="5" cx="980" cy="530.57" fill="#8b9ad9"></circle>
        <circle r="5" cx="952.76" cy="664.75" fill="#8b9ad9"></circle>
        <circle r="5" cx="1138.52" cy="72.18" fill="#8b9ad9"></circle>
        <circle r="5" cx="1153.9" cy="188.28" fill="#8b9ad9"></circle>
        <circle r="5" cx="1092.22" cy="344.74" fill="#8b9ad9"></circle>
        <circle r="5" cx="1136.69" cy="667.06" fill="#8b9ad9"></circle>
        <circle r="5" cx="1255.06" cy="240.55" fill="#8b9ad9"></circle>
        <circle r="5" cx="1276.84" cy="337.7" fill="#8b9ad9"></circle>
        <circle r="5" cx="1266.9" cy="491.97" fill="#8b9ad9"></circle>
        <circle r="5" cx="1457.03" cy="-38.88" fill="#8b9ad9"></circle>
        <circle r="5" cx="1420.95" cy="42.06" fill="#8b9ad9"></circle>
        <circle r="5" cx="1426.52" cy="226.85" fill="#8b9ad9"></circle>
        <circle r="5" cx="1416.87" cy="404.77" fill="#8b9ad9"></circle>
        <circle r="5" cx="1403.04" cy="545.94" fill="#8b9ad9"></circle>
        <circle r="5" cx="1555.81" cy="-103.78" fill="#8b9ad9"></circle>
        <circle r="5" cx="1582.79" cy="61.76" fill="#8b9ad9"></circle>
        <circle r="5" cx="1549.68" cy="382.08" fill="#8b9ad9"></circle>
        <circle r="5" cx="1601.37" cy="521.81" fill="#8b9ad9"></circle>
        <circle r="5" cx="1592.98" cy="660.34" fill="#8b9ad9"></circle>
    </g>
    <defs>
        <mask id="SvgjsMask1000">
            <rect width="1440" height="560" fill="#ffffff"></rect>
        </mask>
        <radialGradient id="SvgjsRadialGradient1001">
            <stop stop-color="#ffffff" offset="0.1"></stop>
            <stop stop-color="#1735b3" offset="0.2"></stop>
            <stop stop-color="rgba(23, 53, 179, 0)" offset="1"></stop>
        </radialGradient>
    </defs>
</svg>